<svg width="24" height="24" viewBox="0 0 24 24" fill="none" xmlns="http://www.w3.org/2000/svg">
<g id="HandSanitizer" clip-path="url(#clip0_1_4599)">
<g id="Group">
<path id="Vector" d="M17 2V4L13 3.999V6H16V8C18.21 8 20 9.79 20 12V20C20 21.105 19.105 22 18 22H6C4.895 22 4 21.105 4 20V12C4 9.79 5.79 8 8 8V6H11V3.999L7.5 4C6.87 4 6.13 4.49 5.3 5.6L3.7 4.4C4.87 2.84 6.13 2 7.5 2H17ZM16 10H8C6.895 10 6 10.895 6 12V20H18V12C18 10.895 17.105 10 16 10ZM13 12V14H15V16H12.999L13 18H11L10.999 16H9V14H11V12H13Z" fill="#121212"/>
</g>
</g>
<defs>
<clipPath id="clip0_1_4599">
<rect width="24" height="24" fill="white"/>
</clipPath>
</defs>
</svg>
